<?xml version="1.0" encoding="iso-8859-1"?>
<!-- Generator: Adobe Illustrator 19.0.0, SVG Export Plug-In . SVG Version: 6.00 Build 0)  -->
<svg xmlns="http://www.w3.org/2000/svg" xmlns:xlink="http://www.w3.org/1999/xlink" version="1.1" id="Layer_1" x="0px" y="0px" viewBox="0 0 512.001 512.001" style="enable-background:new 0 0 512.001 512.001;" xml:space="preserve">
<g>
	<path style="fill:#6AC6D8;" d="M124.886,175.23c-44.609,0-80.77,36.161-80.77,80.77s36.161,80.772,80.77,80.772   c44.611,0,80.772-36.163,80.772-80.772S169.496,175.23,124.886,175.23z M124.886,289.89c-18.716,0-33.892-15.174-33.892-33.892   c0-18.718,15.176-33.892,33.892-33.892c18.718,0,33.891,15.174,33.891,33.892S143.603,289.89,124.886,289.89z"/>
	<path style="fill:#6AC6D8;" d="M387.113,8.053c-44.606,0-80.77,36.161-80.77,80.77s36.163,80.772,80.77,80.772   c44.611,0,80.772-36.163,80.772-80.772S431.724,8.053,387.113,8.053z M387.113,122.714c-18.716,0-33.889-15.174-33.889-33.892   s15.174-33.89,33.889-33.89c18.72,0,33.892,15.172,33.892,33.89C421.004,107.54,405.833,122.714,387.113,122.714z"/>
	<path style="fill:#6AC6D8;" d="M451.803,471.55c10.1-13.486,16.082-30.232,16.082-48.375c0-44.609-36.161-80.772-80.772-80.772   c-44.606,0-80.77,36.163-80.77,80.772s36.163,80.772,80.77,80.772c17.235,0,33.21-5.398,46.327-14.597 M387.113,457.066   c-18.716,0-33.889-15.174-33.889-33.892c0-18.718,15.174-33.892,33.889-33.892c18.72,0,33.892,15.174,33.892,33.892   C421.004,441.892,405.833,457.066,387.113,457.066z"/>
</g>
<g>
	<path style="fill:#EAE8E8;" d="M279.52,184.585l56.934-32.872c-12.315-9.933-21.665-23.397-26.478-38.868l-136.374,78.735   c12.67,9.598,22.405,22.847,27.672,38.181l56.033-32.352"/>
	<path style="fill:#EAE8E8;" d="M387.113,169.594c-8.159,0-16.027-1.221-23.449-3.47v179.751c7.422-2.251,15.291-3.47,23.449-3.47   c8.159,0,16.027,1.223,23.452,3.47V166.123C403.141,168.374,395.272,169.594,387.113,169.594z"/>
</g>
<g>
	<path style="fill:#231F20;" d="M124.886,214.054c-23.128,0-41.946,18.816-41.946,41.946s18.816,41.946,41.946,41.946   c23.128,0,41.944-18.816,41.944-41.946S148.014,214.054,124.886,214.054z M124.886,281.837c-14.248,0-25.839-11.591-25.839-25.839   s11.591-25.839,25.839-25.839c14.248,0,25.838,11.591,25.838,25.839C150.723,270.247,139.133,281.837,124.886,281.837z"/>
	<path style="fill:#231F20;" d="M387.113,130.767c23.128,0,41.946-18.816,41.946-41.946c0-23.127-18.816-41.943-41.946-41.943   c-23.127,0-41.942,18.815-41.942,41.943C345.17,111.951,363.986,130.767,387.113,130.767z M387.113,62.986   c14.248,0,25.839,11.591,25.839,25.837c0,14.247-11.591,25.839-25.839,25.839c-14.246,0-25.835-11.591-25.835-25.839   C361.277,74.577,372.867,62.986,387.113,62.986z"/>
	<path style="fill:#231F20;" d="M418.618,340.142V171.856c33.468-12.743,57.32-45.146,57.32-83.033   C475.937,39.845,436.091,0,387.113,0c-48.977,0-88.823,39.845-88.823,88.823c0,6.923,0.823,13.654,2.328,20.126l-126.606,73.095   c-14.081-9.384-30.972-14.868-49.126-14.868c-48.977,0-88.823,39.845-88.823,88.823s39.845,88.825,88.823,88.825   c18.154,0,35.046-5.484,49.127-14.869l126.605,73.094c-1.505,6.472-2.328,13.202-2.328,20.126   c0,48.978,39.845,88.825,88.823,88.825c18.354,0,35.972-5.553,50.95-16.056c3.641-2.555,4.523-7.577,1.969-11.218   c-2.555-3.641-7.576-4.522-11.218-1.969c-12.254,8.595-26.675,13.137-41.702,13.137c-40.095,0-72.716-32.622-72.716-72.718   c0-33.75,23.113-62.199,54.34-70.36c0.348-0.091,0.698-0.17,1.047-0.254c0.653-0.16,1.308-0.314,1.967-0.455   c0.509-0.11,1.02-0.214,1.531-0.312c0.488-0.093,0.978-0.178,1.469-0.263c2.131-0.364,4.278-0.637,6.434-0.811   c0.321-0.026,0.642-0.052,0.964-0.074c0.711-0.047,1.422-0.089,2.134-0.116c0.243-0.01,0.486-0.012,0.73-0.018   c1.401-0.04,2.804-0.041,4.206,0c0.233,0.006,0.467,0.009,0.699,0.018c0.725,0.028,1.45,0.069,2.173,0.118   c0.296,0.02,0.592,0.044,0.887,0.068c2.197,0.176,4.386,0.453,6.56,0.827c0.455,0.078,0.911,0.157,1.364,0.245   c0.532,0.102,1.062,0.21,1.591,0.324c0.643,0.138,1.282,0.288,1.919,0.443c0.359,0.088,0.718,0.169,1.076,0.261   c31.228,8.162,54.341,36.611,54.341,70.36c0,15.847-5.005,30.905-14.474,43.548c-2.666,3.56-1.942,8.608,1.618,11.274   c3.561,2.666,8.606,1.941,11.274-1.618c11.572-15.451,17.69-33.847,17.69-53.203C475.937,385.288,452.086,352.883,418.618,340.142z    M402.511,176.307V335.69c-0.302-0.053-0.607-0.089-0.909-0.14c-0.653-0.107-1.308-0.207-1.965-0.301   c-0.753-0.107-1.507-0.201-2.261-0.289c-0.621-0.072-1.24-0.144-1.864-0.203c-0.873-0.083-1.747-0.143-2.622-0.2   c-0.515-0.033-1.028-0.076-1.545-0.101c-1.408-0.068-2.818-0.107-4.23-0.107c-1.415,0-2.827,0.041-4.236,0.107   c-0.503,0.024-1.001,0.066-1.501,0.098c-0.894,0.058-1.788,0.119-2.679,0.204c-0.603,0.057-1.203,0.127-1.803,0.197   c-0.78,0.09-1.558,0.187-2.334,0.297c-0.637,0.09-1.271,0.188-1.905,0.291c-0.311,0.052-0.626,0.089-0.936,0.144v-159.38   c0.306,0.054,0.615,0.091,0.922,0.141c0.65,0.107,1.301,0.206,1.955,0.299c0.733,0.104,1.468,0.195,2.203,0.281   c0.658,0.076,1.316,0.152,1.979,0.215c0.766,0.072,1.533,0.123,2.301,0.176c0.632,0.043,1.262,0.093,1.897,0.123   c1.006,0.046,2.012,0.064,3.021,0.076c0.374,0.004,0.742,0.028,1.117,0.028s0.744-0.024,1.119-0.028   c1.006-0.013,2.012-0.03,3.018-0.076c0.638-0.029,1.269-0.081,1.903-0.123c0.766-0.052,1.53-0.103,2.294-0.175   c0.668-0.062,1.33-0.14,1.993-0.217c0.727-0.085,1.452-0.175,2.177-0.277c0.668-0.094,1.333-0.197,1.996-0.306   C401.911,176.395,402.213,176.36,402.511,176.307z M387.113,16.107c40.098,0,72.718,32.621,72.718,72.716   c0,33.75-23.113,62.199-54.341,70.36c-0.35,0.091-0.702,0.171-1.053,0.256c-0.65,0.159-1.303,0.311-1.959,0.453   c-0.513,0.111-1.027,0.216-1.542,0.315c-0.48,0.092-0.964,0.176-1.447,0.259c-2.143,0.367-4.302,0.64-6.469,0.815   c-0.311,0.025-0.624,0.05-0.936,0.071c-0.717,0.048-1.436,0.09-2.154,0.117c-0.233,0.009-0.468,0.011-0.702,0.018   c-1.411,0.041-2.822,0.041-4.233,0c-0.231-0.006-0.464-0.009-0.695-0.018c-0.722-0.028-1.443-0.069-2.164-0.118   c-0.305-0.021-0.61-0.045-0.914-0.07c-2.18-0.175-4.35-0.451-6.506-0.82c-0.471-0.082-0.943-0.162-1.411-0.252   c-0.523-0.1-1.045-0.207-1.566-0.319c-0.643-0.139-1.282-0.288-1.918-0.443c-0.364-0.089-0.729-0.171-1.091-0.265   c-31.223-8.165-54.332-36.611-54.332-70.358C314.397,48.728,347.018,16.107,387.113,16.107z M305.775,124.57   c4.168,9.487,9.964,18.147,17.16,25.65l-47.442,27.392c-3.852,2.224-5.171,7.149-2.948,11.001c2.225,3.852,7.15,5.17,11.001,2.948   l52.356-30.229c6.057,4.291,12.665,7.845,19.707,10.525v168.286c-7.042,2.68-13.65,6.236-19.707,10.525l-125.074-72.212   c1.876-7.176,2.882-14.7,2.882-22.456c0-7.756-1.005-15.28-2.882-22.456l50.505-29.16c3.852-2.224,5.171-7.149,2.948-11.001   c-2.225-3.853-7.15-5.17-11.001-2.948l-48.029,27.731c-0.084-0.178-0.178-0.351-0.263-0.528c-0.069-0.143-0.142-0.282-0.212-0.425   c-4.378-9.031-10.229-17.235-17.37-24.301L305.775,124.57z M52.17,255.998c0-40.095,32.621-72.716,72.716-72.716   c28.819,0,53.777,16.851,65.536,41.217c0,0,0,0.001,0.001,0.002c0.483,1,0.94,2.014,1.377,3.04   c0.125,0.293,0.239,0.592,0.361,0.888c0.262,0.638,0.516,1.281,0.761,1.927c0.185,0.491,0.364,0.984,0.539,1.479   c2.674,7.565,4.144,15.693,4.144,24.161c0,8.463-1.468,16.586-4.138,24.146c-0.178,0.507-0.362,1.012-0.552,1.513   c-0.234,0.621-0.478,1.235-0.729,1.847c-0.132,0.323-0.258,0.649-0.394,0.97c-0.432,1.009-0.882,2.01-1.356,2.996   c-0.016,0.032-0.032,0.064-0.048,0.097c-11.773,24.33-36.709,41.15-65.5,41.15C84.79,328.717,52.17,296.096,52.17,255.998z    M202.971,298.308c0.001-0.002,0.003-0.005,0.004-0.008c0.622-1.148,1.218-2.31,1.789-3.487c0.075-0.155,0.155-0.306,0.229-0.46   c0.084-0.175,0.176-0.345,0.259-0.52l117.684,67.945c-7.197,7.503-12.993,16.164-17.16,25.65L187.407,319.09   C193.607,312.953,198.831,305.955,202.971,298.308z"/>
	<path style="fill:#231F20;" d="M345.17,423.175c0,23.128,18.815,41.946,41.942,41.946c23.128,0,41.946-18.816,41.946-41.946   c0-23.128-18.816-41.945-41.946-41.945C363.986,381.229,345.17,400.046,345.17,423.175z M412.951,423.175   c0,14.247-11.591,25.839-25.839,25.839c-14.246,0-25.835-11.591-25.835-25.839s11.591-25.839,25.835-25.839   C401.36,397.336,412.951,408.927,412.951,423.175z"/>
</g>
<g style="opacity:0.1;">
	<path style="fill:#231F20;" d="M331.473,88.823c0-40.335,29.566-73.757,68.205-79.792c-4.095-0.64-8.291-0.977-12.564-0.977   c-44.606,0-80.77,36.161-80.77,80.77s36.163,80.772,80.77,80.772c4.274,0,8.469-0.337,12.564-0.977   C361.039,162.58,331.473,129.157,331.473,88.823z"/>
</g>
<g style="opacity:0.1;">
	<path style="fill:#231F20;" d="M331.473,423.175c0-40.335,29.566-73.758,68.205-79.795c-4.095-0.64-8.291-0.977-12.564-0.977   c-44.606,0-80.77,36.163-80.77,80.772s36.163,80.772,80.77,80.772c4.278,0,8.48-0.335,12.578-0.975   C361.046,496.94,331.473,463.513,331.473,423.175z"/>
</g>
<g style="opacity:0.1;">
	<path style="fill:#231F20;" d="M69.245,255.998c0-40.335,29.565-73.757,68.205-79.792c-4.095-0.64-8.291-0.977-12.564-0.977   c-44.609,0-80.77,36.161-80.77,80.77s36.161,80.772,80.77,80.772c4.274,0,8.469-0.338,12.564-0.977   C98.811,329.756,69.245,296.333,69.245,255.998z"/>
</g>
<g>
</g>
<g>
</g>
<g>
</g>
<g>
</g>
<g>
</g>
<g>
</g>
<g>
</g>
<g>
</g>
<g>
</g>
<g>
</g>
<g>
</g>
<g>
</g>
<g>
</g>
<g>
</g>
<g>
</g>
</svg>
